<svg xmlns="http://www.w3.org/2000/svg" width="345" height="100.743" viewBox="0 0 91.281 26.655">
<path d="M7.785 11.11c2.21 0 3.651-1.598 3.651-4.025 0-2.467-1.44-4.026-3.65-4.026-2.25 0-3.67 1.559-3.67 4.026 0 2.427 1.42 4.025 3.67 4.025m0 3.079c-3.928 0-7.125-2.94-7.125-7.104C.661 2.92 3.858 0 7.785 0c3.947 0 7.085 2.92 7.085 7.085 0 4.163-3.158 7.104-7.085 7.104M23.396.2h-7.694l1.926 2.723h5.512c1.342 0 1.917.671 1.917 1.732 0 1.068-.575 1.74-1.917 1.74h-5.21v7.658h3.375V9.08h2.09c3.536 0 5.095-2.135 5.095-4.424C28.49 2.111 26.79.2 23.396.2M31.433.197l3.374 1.279V14.05h-3.374zM43.452 14.188c-2.98 0-5.308-1.48-5.407-4.282h3.592c.098 1.066.77 1.579 1.716 1.579.987 0 1.619-.493 1.619-1.302 0-2.566-6.927-1.184-6.887-6.099C38.085 1.46 40.235 0 43.136 0c3.02 0 5.052 1.5 5.19 4.144h-3.65c-.06-.888-.691-1.42-1.599-1.44-.809-.02-1.42.394-1.42 1.263 0 2.407 6.847 1.321 6.847 5.96 0 2.328-1.815 4.261-5.052 4.261M60.978 7.598H53.5v6.452h-1.382V.257H53.5v6.196h7.478V.257l1.382 1.278V14.05h-1.382zM66.645.257h1.381v8.682c0 2.862 1.5 4.025 3.651 4.025 2.15 0 3.611-1.163 3.611-4.025V.257l1.381 1.278V8.92c0 3.65-2.21 5.268-5.012 5.268-2.802 0-5.012-1.618-5.012-5.268zM85.553 7.499h-3.237v5.387h3.296c1.993 0 3.177-1.007 3.177-2.664 0-1.657-1.263-2.723-3.236-2.723m-.08-6.078h-3.157v4.933h3.217c1.875 0 2.92-.947 2.92-2.486 0-1.48-.986-2.447-2.98-2.447m.237 12.63h-4.775V.256h4.638c2.9 0 4.281 1.539 4.281 3.472 0 1.816-1.144 2.822-2.466 3.197 1.539.277 2.782 1.697 2.782 3.434 0 2.072-1.558 3.69-4.46 3.69" fill="#fff"/>
<g font-weight="600" font-size="6.35" font-family="Poppins" fill="#fff">
<path d="M4.74 20.178v4.7h-.932v-2h-1.99v2H.886v-4.7h.932v1.932h1.99v-1.932zM9.086 22.932q0 .202-.026.363H6.364q.033.404.28.633.246.23.605.23.52 0 .739-.452h1.005q-.16.539-.612.889-.453.343-1.112.343-.532 0-.958-.235-.42-.243-.66-.68-.232-.438-.232-1.01 0-.58.233-1.017.233-.438.652-.673.42-.236.965-.236.526 0 .939.229.419.229.645.653.233.418.233.963zm-.965-.27q-.006-.363-.26-.578-.252-.223-.618-.223-.347 0-.586.216-.233.209-.286.586zM10.697 19.895v4.983h-.932v-4.983zM12.547 21.686q.18-.256.493-.424.32-.175.725-.175.473 0 .852.236.386.235.606.673.226.43.226 1.003 0 .572-.226 1.017-.22.437-.606.68-.38.242-.852.242-.406 0-.718-.168-.307-.168-.5-.424v2.309h-.932v-5.507h.932zM14.497 23q0-.336-.14-.579-.132-.249-.359-.377-.22-.128-.479-.128-.253 0-.48.135-.219.128-.359.377-.133.249-.133.586 0 .336.133.585.14.25.36.384.226.128.48.128.259 0 .478-.135.227-.134.36-.383.14-.25.14-.593zM19.316 24.925q-.485 0-.878-.169-.386-.168-.613-.484-.226-.317-.232-.748h.998q.02.29.2.458.186.168.505.168.327 0 .513-.154.186-.162.186-.418 0-.209-.126-.343-.127-.135-.32-.209-.186-.08-.519-.175-.452-.135-.739-.263-.28-.134-.485-.397-.2-.269-.2-.713 0-.418.206-.727.206-.31.58-.472.372-.168.851-.168.719 0 1.165.357.453.35.5.983h-1.026q-.013-.243-.206-.398-.187-.161-.5-.161-.272 0-.439.141-.16.142-.16.411 0 .188.12.316.127.122.307.202.186.074.519.175.452.135.739.27.286.134.492.404.206.269.206.707 0 .377-.193.7-.193.323-.565.518-.373.189-.886.189zM21.526 23.013q0-.58.233-1.01.233-.438.646-.673.412-.243.945-.243.685 0 1.131.35.453.344.606.97h-1.005q-.08-.243-.273-.377-.186-.142-.466-.142-.4 0-.632.297-.233.289-.233.828 0 .532.233.828.233.29.632.29.566 0 .74-.512h1.004q-.153.605-.606.962-.452.357-1.131.357-.533 0-.945-.235-.413-.243-.646-.674-.233-.437-.233-1.016zM26.245 20.703q-.246 0-.412-.154-.16-.162-.16-.398 0-.235.16-.39.166-.162.412-.162.247 0 .406.162.167.155.167.39 0 .236-.167.398-.16.154-.406.154zm.46.445v3.73h-.932v-3.73zM31.05 22.932q0 .202-.026.363H28.33q.033.404.28.633.245.23.605.23.519 0 .739-.452h1.005q-.16.539-.613.889-.452.343-1.111.343-.533 0-.959-.235-.419-.243-.659-.68-.233-.438-.233-1.01 0-.58.233-1.017.233-.438.653-.673.419-.236.965-.236.526 0 .938.229.42.229.646.653.233.418.233.963zm-.964-.27q-.007-.363-.26-.578-.253-.223-.619-.223-.346 0-.586.216-.233.209-.286.586zM33.773 21.094q.659 0 1.065.424.406.417.406 1.171v2.189h-.932v-2.06q0-.445-.22-.68-.22-.243-.598-.243-.387 0-.613.242-.22.236-.22.68v2.06h-.931v-3.73h.932v.465q.186-.242.472-.377.293-.141.64-.141zM35.89 23.013q0-.58.233-1.01.233-.438.645-.673.413-.243.945-.243.686 0 1.132.35.453.344.606.97h-1.005q-.08-.243-.273-.377-.187-.142-.466-.142-.4 0-.633.297-.233.289-.233.828 0 .532.233.828.233.29.633.29.566 0 .739-.512h1.005q-.153.605-.606.962-.453.357-1.132.357-.532 0-.945-.235-.412-.243-.645-.674-.233-.437-.233-1.016zM43.564 22.932q0 .202-.027.363h-2.695q.033.404.28.633.246.23.605.23.52 0 .739-.452h1.005q-.16.539-.613.889-.452.343-1.111.343-.533 0-.959-.235-.419-.243-.658-.68-.233-.438-.233-1.01 0-.58.233-1.017.232-.438.652-.673.42-.236.965-.236.526 0 .938.229.42.229.646.653.233.418.233.963zm-.965-.27q-.007-.363-.26-.578-.253-.223-.619-.223-.346 0-.585.216-.233.209-.287.586zM44.786 19.589h2.266l2.79 2.9-2.79 2.902h-2.266l2.803-2.901zM52.117 20.939v1.178h1.564v.748h-1.564v1.245h1.764v.768h-2.696v-4.706h2.696v.767zM54.486 23q0-.566.22-1.004.226-.438.606-.673.386-.236.858-.236.413 0 .72.168.312.169.498.425v-.532h.939v3.73h-.939v-.546q-.18.263-.499.438-.313.168-.725.168-.466 0-.852-.242-.38-.243-.606-.68-.22-.445-.22-1.017zm2.902.013q0-.344-.133-.586-.133-.25-.36-.377-.225-.135-.485-.135t-.48.128q-.219.128-.359.377-.133.243-.133.58 0 .336.133.592.14.249.36.383.226.135.479.135.26 0 .486-.128.226-.135.36-.377.132-.249.132-.592zM60.17 21.727q.18-.297.466-.465.293-.168.666-.168v.99h-.246q-.44 0-.666.208-.22.209-.22.727v1.859h-.931v-3.73h.932zM63.971 21.094q.659 0 1.065.424.406.417.406 1.171v2.189h-.932v-2.06q0-.445-.22-.68-.22-.243-.598-.243-.387 0-.613.242-.22.236-.22.68v2.06h-.931v-3.73h.932v.465q.186-.242.472-.377.293-.141.64-.141zM67.685 22.521q0-.693.306-1.239.313-.552.846-.855.539-.31 1.204-.31.779 0 1.365.405.585.404.818 1.117h-1.071q-.16-.336-.453-.505-.286-.168-.665-.168-.406 0-.726.195-.313.189-.492.539-.173.35-.173.821 0 .465.173.822.18.35.492.545.32.188.726.188.379 0 .665-.168.293-.175.453-.512h1.071q-.233.72-.818 1.125-.58.397-1.365.397-.665 0-1.204-.303-.533-.31-.846-.855-.306-.545-.306-1.239zM73.955 21.727q.18-.297.466-.465.293-.168.665-.168v.99h-.246q-.44 0-.665.208-.22.209-.22.727v1.859h-.932v-3.73h.932zM79.24 21.148l-2.283 5.493h-.992l.799-1.858-1.478-3.635h1.045l.952 2.605.965-2.605zM80.67 21.686q.18-.256.493-.424.32-.175.726-.175.472 0 .852.236.386.235.605.673.227.43.227 1.003 0 .572-.227 1.017-.22.437-.605.68-.38.242-.852.242-.406 0-.719-.168-.306-.168-.5-.424v2.309h-.931v-5.507h.932zM82.622 23q0-.336-.14-.579-.133-.249-.36-.377-.219-.128-.478-.128-.253 0-.48.135-.22.128-.36.377-.132.249-.132.586 0 .336.133.585.14.25.36.384.226.128.479.128.26 0 .479-.135.226-.134.36-.383.139-.25.139-.593zM85.337 21.922v1.804q0 .189.086.276.093.081.306.081h.433v.795h-.586q-1.178 0-1.178-1.158v-1.798h-.44v-.774h.44v-.923h.939v.923h.825v.774zM88.472 24.938q-.533 0-.959-.235-.426-.243-.672-.68-.24-.438-.24-1.01 0-.573.247-1.01.252-.438.685-.673.433-.243.965-.243.533 0 .965.243.433.235.68.673.252.437.252 1.01 0 .572-.26 1.01-.252.437-.692.68-.432.235-.971.235zm0-.821q.252 0 .472-.121.226-.128.36-.377.133-.25.133-.606 0-.532-.28-.815-.273-.29-.672-.29-.4 0-.672.29-.267.283-.267.815t.26.821q.266.283.666.283z" style="line-height:1.25;-inkscape-font-specification:'Poppins, Semi-Bold';font-variant-ligatures:normal;font-variant-caps:normal;font-variant-numeric:normal;font-variant-east-asian:normal;white-space:pre"/>
</g>
<path d="M.661 17.198H90.62" fill="none" stroke="#040e32" stroke-width="1.323" stroke-linecap="round"/>
</svg>
