<svg xmlns="http://www.w3.org/2000/svg" xmlns:xlink="http://www.w3.org/1999/xlink" viewBox="0 0 253.73 245.07"><defs><style>.cls-1{isolation:isolate;}.cls-2{fill:#fff;}.cls-3{fill:url(#linear-gradient);}.cls-4{fill:#e41fc3;opacity:0.5;}.cls-5{fill:#e61ec9;}.cls-6{fill:#d352a5;}.cls-7{fill:#e72cc7;}.cls-8{fill:#e641c1;}.cls-9{fill:url(#linear-gradient-2);}.cls-10,.cls-12,.cls-14,.cls-17,.cls-19{mix-blend-mode:overlay;}.cls-10{fill:url(#linear-gradient-3);}.cls-11{fill:url(#linear-gradient-4);}.cls-12{fill:url(#linear-gradient-5);}.cls-13{fill:url(#linear-gradient-6);}.cls-14{fill:url(#linear-gradient-7);}.cls-15{fill:#ea6bc4;}.cls-16{fill:url(#linear-gradient-8);}.cls-17{fill:url(#linear-gradient-9);}.cls-18{fill:url(#linear-gradient-10);}.cls-19{fill:url(#linear-gradient-11);}</style><linearGradient id="linear-gradient" x1="78.21" y1="2.94" x2="78.21" y2="177.67" gradientUnits="userSpaceOnUse"><stop offset="0" stop-color="#f93c66"/><stop offset="1" stop-color="#c22984"/></linearGradient><linearGradient id="linear-gradient-2" x1="179.69" y1="2.94" x2="179.69" y2="177.67" xlink:href="#linear-gradient"/><linearGradient id="linear-gradient-3" x1="193.6" y1="45.59" x2="177.72" y2="140.37" gradientUnits="userSpaceOnUse"><stop offset="0" stop-color="#fff"/><stop offset="1" stop-color="#fff" stop-opacity="0"/></linearGradient><linearGradient id="linear-gradient-4" x1="165.21" y1="2.94" x2="165.21" y2="177.67" xlink:href="#linear-gradient"/><linearGradient id="linear-gradient-5" x1="178.29" y1="43.03" x2="162.41" y2="137.8" xlink:href="#linear-gradient-3"/><linearGradient id="linear-gradient-6" x1="71.68" y1="2.94" x2="71.68" y2="177.67" xlink:href="#linear-gradient"/><linearGradient id="linear-gradient-7" x1="87.31" y1="27.78" x2="71.43" y2="122.56" xlink:href="#linear-gradient-3"/><linearGradient id="linear-gradient-8" x1="92.51" y1="2.94" x2="92.51" y2="177.67" xlink:href="#linear-gradient"/><linearGradient id="linear-gradient-9" x1="102.67" y1="30.35" x2="86.79" y2="125.13" xlink:href="#linear-gradient-3"/><linearGradient id="linear-gradient-10" x1="160.71" y1="2.94" x2="160.71" y2="177.67" xlink:href="#linear-gradient"/><linearGradient id="linear-gradient-11" x1="168.78" y1="41.43" x2="152.89" y2="136.21" xlink:href="#linear-gradient-3"/></defs><g class="cls-1"><g id="Layer_2" data-name="Layer 2"><g id="Layer_1-2" data-name="Layer 1"><path class="cls-2" d="M20.19,245.07C9.06,245.07,0,236.73,0,224.93s9.06-20.08,20.19-20.08,20.09,8.28,20.09,20.08A19.67,19.67,0,0,1,20.19,245.07Zm0-8.73c6.27,0,10.35-4.53,10.35-11.41s-4.08-11.41-10.35-11.41-10.4,4.42-10.4,11.41S13.82,236.34,20.19,236.34Z"/><path class="cls-2" d="M64.44,205.42H42.63l5.47,7.72H63.72c3.8,0,5.43,1.9,5.43,4.91S67.52,223,63.72,223H49v21.7h9.57V230.59h5.92c10,0,14.45-6.06,14.45-12.54C78.89,210.83,74.06,205.42,64.44,205.42Z"/><path class="cls-2" d="M87.23,205.41,96.79,209v35.65H87.23Z"/><path class="cls-2" d="M121.3,245.07c-8.45,0-15-4.2-15.33-12.14h10.18a4.51,4.51,0,0,0,4.87,4.48c2.79,0,4.58-1.4,4.58-3.7,0-7.27-19.63-3.35-19.52-17.28,0-7.44,6.1-11.58,14.32-11.58,8.56,0,14.32,4.25,14.71,11.75H124.76c-.16-2.52-2-4-4.53-4.09-2.29,0-4,1.12-4,3.58,0,6.83,19.41,3.75,19.41,16.9C135.62,239.59,130.47,245.07,121.3,245.07Z"/><path class="cls-2" d="M171,226.39h-21.2v18.29h-3.92v-39.1h3.92v17.56H171V205.58l3.91,3.62v35.48H171Z"/><path class="cls-2" d="M187,205.58H191v24.61c0,8.11,4.25,11.41,10.34,11.41s10.24-3.3,10.24-11.41V205.58l3.92,3.62v20.93c0,10.35-6.27,14.94-14.21,14.94S187,240.48,187,230.13Z"/><path class="cls-2" d="M241.08,244.68H227.55v-39.1h13.14c8.23,0,12.14,4.36,12.14,9.84,0,5.15-3.24,8-7,9.06a9.86,9.86,0,0,1,7.89,9.74C253.73,240.09,249.31,244.68,241.08,244.68Zm-.67-35.8h-8.95v14h9.12c5.31,0,8.28-2.68,8.28-7.05C248.86,211.62,246.06,208.88,240.41,208.88Zm.23,17.23h-9.18v15.27h9.34c5.65,0,9-2.86,9-7.55S246.23,226.11,240.64,226.11Z"/><path class="cls-2" d="M124.52,0A14.39,14.39,0,1,0,138,19.5a14.35,14.35,0,0,0-.76-11.93A14.39,14.39,0,0,0,124.52,0Z"/><path class="cls-2" d="M124.52,153.42a14.41,14.41,0,1,0,12.75,7.73A14.38,14.38,0,0,0,124.52,153.42Z"/><path class="cls-2" d="M133.08,96.12a8.67,8.67,0,1,0-6.47,2.9A8.67,8.67,0,0,0,133.08,96.12Z"/><path class="cls-3" d="M98.55,11.75A83.86,83.86,0,0,0,56.67,44.93L78,35.83A73.91,73.91,0,0,1,99.62,22.51l.13-.05a25.54,25.54,0,0,1-1.2-10.71Z"/><path class="cls-4" d="M98.55,11.75A83.86,83.86,0,0,0,56.67,44.93L78,35.83A73.91,73.91,0,0,1,99.62,22.51l.13-.05a25.54,25.54,0,0,1-1.2-10.71Z"/><path class="cls-5" d="M78,35.83l-21.31,9.1a83.52,83.52,0,0,0-4.61,8L62.88,54.5A72.77,72.77,0,0,1,78,35.83Z"/><path class="cls-6" d="M197.84,73.88l10.83,1.55a83.66,83.66,0,0,0-58.39-65.11,26,26,0,0,1,.35,4.07,26,26,0,0,1-.9,6.7l.12,0A73.14,73.14,0,0,1,197.84,73.88Z"/><path class="cls-7" d="M99,51a5.85,5.85,0,0,0-8.27-.41,53.24,53.24,0,0,0-6.41,6.95l14,2c.09-.09.18-.19.27-.27A5.86,5.86,0,0,0,99,51Z"/><path class="cls-8" d="M162.48,50.64a5.85,5.85,0,1,0-7.87,8.67,41.7,41.7,0,0,1,7.7,9.46l14.05,2A53.6,53.6,0,0,0,162.48,50.64Z"/><path class="cls-9" d="M150.51,170.16A83.55,83.55,0,0,0,210,90.27a82.13,82.13,0,0,0-.47-8.63l-9.79,8.72v.1A73,73,0,0,1,149.37,160a25.5,25.5,0,0,1,1.26,7.85C150.63,168.6,150.58,169.38,150.51,170.16Z"/><path class="cls-10" d="M150.51,170.16A83.55,83.55,0,0,0,210,90.27a82.13,82.13,0,0,0-.47-8.63l-9.79,8.72v.1A73,73,0,0,1,149.37,160a25.5,25.5,0,0,1,1.26,7.85C150.63,168.6,150.58,169.38,150.51,170.16Z"/><path class="cls-11" d="M162.47,129.9a53.45,53.45,0,0,0,13-17.9L155,130.19a5.82,5.82,0,0,0,7.48-.29Z"/><path class="cls-12" d="M162.47,129.9a53.45,53.45,0,0,0,13-17.9L155,130.19a5.82,5.82,0,0,0,7.48-.29Z"/><path class="cls-13" d="M53.48,90.46a73,73,0,0,1,9.4-36L52.06,52.94A83.34,83.34,0,0,0,98.47,168.76c0-.32,0-.63,0-1a25.9,25.9,0,0,1,1.72-9.18A73.67,73.67,0,0,1,53.48,90.46Z"/><path class="cls-14" d="M53.48,90.46a73,73,0,0,1,9.4-36L52.06,52.94A83.34,83.34,0,0,0,98.47,168.76c0-.32,0-.63,0-1a25.9,25.9,0,0,1,1.72-9.18A73.67,73.67,0,0,1,53.48,90.46Z"/><path class="cls-15" d="M197.84,73.88a73.12,73.12,0,0,1,1.91,16.48l9.79-8.72q-.31-3.14-.87-6.21Z"/><path class="cls-16" d="M73.16,90.26a53.51,53.51,0,0,0,17.6,39.64,5.86,5.86,0,1,0,7.86-8.7A41.69,41.69,0,0,1,85.34,96.12h26.51a15.73,15.73,0,0,1,0-11.71H85.34a41.78,41.78,0,0,1,13-24.82l-14-2A53.57,53.57,0,0,0,73.16,90.26Z"/><path class="cls-17" d="M73.16,90.26a53.51,53.51,0,0,0,17.6,39.64,5.86,5.86,0,1,0,7.86-8.7A41.69,41.69,0,0,1,85.34,96.12h26.51a15.73,15.73,0,0,1,0-11.71H85.34a41.78,41.78,0,0,1,13-24.82l-14-2A53.57,53.57,0,0,0,73.16,90.26Z"/><path class="cls-18" d="M180.06,90.26a53.38,53.38,0,0,0-3.7-19.47l-14.05-2a42.18,42.18,0,0,1,5.56,15.64h-26.5a15.73,15.73,0,0,1,0,11.71h26.5a41.75,41.75,0,0,1-13.26,25.09,5.79,5.79,0,0,0,.38,9L175.43,112A53.6,53.6,0,0,0,180.06,90.26Z"/><path class="cls-19" d="M180.06,90.26a53.38,53.38,0,0,0-3.7-19.47l-14.05-2a42.18,42.18,0,0,1,5.56,15.64h-26.5a15.73,15.73,0,0,1,0,11.71h26.5a41.75,41.75,0,0,1-13.26,25.09,5.79,5.79,0,0,0,.38,9L175.43,112A53.6,53.6,0,0,0,180.06,90.26Z"/></g></g></g></svg>